<?xml version="1.0" encoding="UTF-8" standalone="no"?>
<svg
   xmlns:dc="http://purl.org/dc/elements/1.1/"
   xmlns:cc="http://creativecommons.org/ns#"
   xmlns:rdf="http://www.w3.org/1999/02/22-rdf-syntax-ns#"
   xmlns:svg="http://www.w3.org/2000/svg"
   xmlns="http://www.w3.org/2000/svg"
   width="45.191536mm"
   height="4.8391027mm"
   viewBox="0 0 45.191536 4.8391027"
   version="1.1"
   id="svg1742">
  <defs
     id="defs1736" />
  <metadata
     id="metadata1739">
    <rdf:RDF>
      <cc:Work
         rdf:about="">
        <dc:format>image/svg+xml</dc:format>
        <dc:type
           rdf:resource="http://purl.org/dc/dcmitype/StillImage" />
        <dc:title></dc:title>
      </cc:Work>
    </rdf:RDF>
  </metadata>
  <g
     id="layer1"
     transform="translate(-99.112565,-231.92568)">
    <g
       id="g52"
       transform="matrix(0.15023391,0,0,0.15023391,89.437667,211.9029)"
       style="stroke-width:6.6563">
      <g
         id="g2980"
         transform="matrix(2.9907639,0,0,2.9907639,-245.73972,-304.00947)"
         style="stroke-width:6.6563">
        <g
           id="g72"
           transform="matrix(0.24794412,0,0,-0.24794412,93.210836,149.93175)"
           style="stroke-width:6.6563" />
        <g
           id="g76"
           transform="matrix(0.24794412,0,0,-0.24794412,99.822761,153.02076)"
           style="stroke-width:6.6563" />
        <g
           id="g80"
           transform="matrix(0.24794412,0,0,-0.24794412,85.586058,144.17734)"
           style="stroke-width:6.6563" />
        <g
           id="g84"
           transform="matrix(0.24794412,0,0,-0.24794412,121.15806,147.08307)"
           style="stroke-width:6.6563">
          <path
             d="M 0,0 H -6.677 V -39.427 H 0 v 23.068 h 5.923 v 6.77 H 0 Z"
             style="fill:#ffffff;fill-opacity:1;fill-rule:nonzero;stroke:none;stroke-width:6.6563"
             id="path86" />
        </g>
        <g
           id="g88"
           transform="matrix(0.24794412,0,0,-0.24794412,141.05533,149.46068)"
           style="stroke-width:6.6563">
          <path
             d="M 0,0 V 9.589 H -6.677 V -29.838 H 0 V -6.77 H 5.923 V 0 Z"
             style="fill:#ffffff;fill-opacity:1;fill-rule:nonzero;stroke:none;stroke-width:6.6563"
             id="path90" />
        </g>
        <path
           d="m 116.15983,156.85883 h 1.62973 v -7.39815 h -1.62973 z"
           style="fill:#ffffff;fill-opacity:1;fill-rule:nonzero;stroke:none;stroke-width:1.65039"
           id="path92" />
        <path
           d="m 117.77667,147.08314 h -1.6047 v 1.71131 h 1.6047 z"
           style="fill:#ffffff;fill-opacity:1;fill-rule:nonzero;stroke:none;stroke-width:1.65039"
           id="path94" />
        <g
           id="g96"
           transform="matrix(0.24794412,0,0,-0.24794412,112.8219,155.23011)"
           style="stroke-width:6.6563">
          <path
             d="m 0,0 h -11.347 v 23.269 h -6.568 V 0 h -9.853 c -1.357,0 -2.458,1.1 -2.458,2.458 v 20.811 h -6.569 v -23.67 c 0,-3.407 2.762,-6.168 6.168,-6.168 H 6.569 V 23.269 H 0 Z"
             style="fill:#ffffff;fill-opacity:1;fill-rule:nonzero;stroke:none;stroke-width:6.6563"
             id="path98" />
        </g>
        <g
           id="g100"
           transform="matrix(0.24794412,0,0,-0.24794412,128.64892,149.46068)"
           style="stroke-width:6.6563">
          <path
             d="m 0,0 h -19.954 v -29.819 h 6.568 v 23.25 h 10.527 c 1.357,0 2.458,-1.1 2.458,-2.458 V -29.819 H 6.168 V -6.167 C 6.168,-2.761 3.406,0 0,0"
             style="fill:#ffffff;fill-opacity:1;fill-rule:nonzero;stroke:none;stroke-width:6.6563"
             id="path102" />
        </g>
        <g
           id="g104"
           transform="matrix(0.24794412,0,0,-0.24794412,133.93251,151.01445)"
           style="stroke-width:6.6563">
          <path
             d="M 0,0 C 3.012,1.601 5.922,1.053 8.377,-0.981 L -4.231,-7.684 C -4.493,-4.483 -3.114,-1.656 0,0 m 8.748,-16.204 c -3.839,-2.04 -8.279,-0.941 -11.059,3.034 L 18.233,-2.249 C 17.884,-1.414 17.455,-0.622 16.969,0.13 16.86,0.303 16.744,0.465 16.631,0.632 13.864,4.562 9.302,7.137 4.131,7.137 2.098,7.137 0.161,6.732 -1.613,6.011 -1.746,5.955 -1.879,5.904 -2.01,5.844 -2.553,5.606 -3.073,5.332 -3.581,5.034 -4.045,4.761 -4.482,4.465 -4.907,4.159 c -3.782,-2.782 -6.248,-7.251 -6.248,-12.307 0,-8.443 6.843,-15.287 15.286,-15.287 7.666,0 13.995,5.65 15.098,13.009 -1.647,0.005 -6.036,0.017 -6.067,0.019 -0.552,-2.49 -2.131,-4.583 -4.414,-5.797"
             style="fill:#ffffff;fill-opacity:1;fill-rule:nonzero;stroke:none;stroke-width:6.6563"
             id="path106" />
        </g>
        <path
           d="m 144.49785,156.85412 h -1.65378 v -1.65378 h 1.65378 z"
           style="fill:#41bea5;fill-opacity:1;fill-rule:nonzero;stroke:none;stroke-width:1.65039"
           id="path108" />
      </g>
      <text
         xml:space="preserve"
         style="font-style:normal;font-variant:normal;font-weight:normal;font-stretch:normal;font-size:41.8307px;line-height:1.25;font-family:Roboto;-inkscape-font-specification:Roboto;letter-spacing:-1.98438px;word-spacing:0px;fill:#ffffff;fill-opacity:1;stroke:none;stroke-width:6.96094"
         x="188.08769"
         y="165.07935"
         id="text27"><tspan
           id="tspan25"
           x="188.08769"
           y="165.07935"
           style="font-style:normal;font-variant:normal;font-weight:300;font-stretch:normal;font-family:Roboto;-inkscape-font-specification:'Roboto Light';fill:#ffffff;stroke-width:6.96094">foundation</tspan></text>
    </g>
  </g>
</svg>
