<?xml version="1.0" encoding="UTF-8" standalone="no"?>
<svg
   xmlns:dc="http://purl.org/dc/elements/1.1/"
   xmlns:cc="http://creativecommons.org/ns#"
   xmlns:rdf="http://www.w3.org/1999/02/22-rdf-syntax-ns#"
   xmlns:svg="http://www.w3.org/2000/svg"
   xmlns="http://www.w3.org/2000/svg"
   xmlns:sodipodi="http://sodipodi.sourceforge.net/DTD/sodipodi-0.dtd"
   xmlns:inkscape="http://www.inkscape.org/namespaces/inkscape"
   width="45.191536mm"
   height="4.8391027mm"
   viewBox="0 0 45.191536 4.8391027"
   version="1.1"
   id="svg1742"
   sodipodi:docname="logo.svg"
   inkscape:version="1.0.2 (e86c870879, 2021-01-15)">
  <sodipodi:namedview
     pagecolor="#ffffff"
     bordercolor="#666666"
     borderopacity="1"
     objecttolerance="10"
     gridtolerance="10"
     guidetolerance="10"
     inkscape:pageopacity="0"
     inkscape:pageshadow="2"
     inkscape:window-width="2560"
     inkscape:window-height="1381"
     id="namedview26"
     showgrid="false"
     inkscape:zoom="7.4179175"
     inkscape:cx="85.401328"
     inkscape:cy="9.1447611"
     inkscape:window-x="0"
     inkscape:window-y="0"
     inkscape:window-maximized="1"
     inkscape:current-layer="g52" />
  <defs
     id="defs1736" />
  <metadata
     id="metadata1739">
    <rdf:RDF>
      <cc:Work
         rdf:about="">
        <dc:format>image/svg+xml</dc:format>
        <dc:type
           rdf:resource="http://purl.org/dc/dcmitype/StillImage" />
        <dc:title></dc:title>
      </cc:Work>
    </rdf:RDF>
  </metadata>
  <g
     id="layer1"
     transform="translate(-99.112565,-231.92568)">
    <g
       id="g52"
       transform="matrix(0.15023391,0,0,0.15023391,89.437667,211.9029)"
       style="stroke-width:6.6563">
      <g
         id="g2980"
         transform="matrix(2.9907639,0,0,2.9907639,-245.73972,-304.00947)"
         style="stroke-width:6.6563">
        <g
           id="g72"
           transform="matrix(0.24794412,0,0,-0.24794412,93.210836,149.93175)"
           style="stroke-width:6.6563" />
        <g
           id="g76"
           transform="matrix(0.24794412,0,0,-0.24794412,99.822761,153.02076)"
           style="stroke-width:6.6563" />
        <g
           id="g80"
           transform="matrix(0.24794412,0,0,-0.24794412,85.586058,144.17734)"
           style="stroke-width:6.6563" />
        <g
           id="g84"
           transform="matrix(0.24794412,0,0,-0.24794412,121.15806,147.08307)"
           style="stroke-width:6.6563">
          <path
             d="M 0,0 H -6.677 V -39.427 H 0 v 23.068 h 5.923 v 6.77 H 0 Z"
             style="fill:#ffffff;fill-opacity:1;fill-rule:nonzero;stroke:none;stroke-width:6.6563"
             id="path86" />
        </g>
        <g
           id="g88"
           transform="matrix(0.24794412,0,0,-0.24794412,141.05533,149.46068)"
           style="stroke-width:6.6563">
          <path
             d="M 0,0 V 9.589 H -6.677 V -29.838 H 0 V -6.77 H 5.923 V 0 Z"
             style="fill:#ffffff;fill-opacity:1;fill-rule:nonzero;stroke:none;stroke-width:6.6563"
             id="path90" />
        </g>
        <path
           d="m 116.15983,156.85883 h 1.62973 v -7.39815 h -1.62973 z"
           style="fill:#ffffff;fill-opacity:1;fill-rule:nonzero;stroke:none;stroke-width:1.65039"
           id="path92" />
        <path
           d="m 117.77667,147.08314 h -1.6047 v 1.71131 h 1.6047 z"
           style="fill:#ffffff;fill-opacity:1;fill-rule:nonzero;stroke:none;stroke-width:1.65039"
           id="path94" />
        <g
           id="g96"
           transform="matrix(0.24794412,0,0,-0.24794412,112.8219,155.23011)"
           style="stroke-width:6.6563">
          <path
             d="m 0,0 h -11.347 v 23.269 h -6.568 V 0 h -9.853 c -1.357,0 -2.458,1.1 -2.458,2.458 v 20.811 h -6.569 v -23.67 c 0,-3.407 2.762,-6.168 6.168,-6.168 H 6.569 V 23.269 H 0 Z"
             style="fill:#ffffff;fill-opacity:1;fill-rule:nonzero;stroke:none;stroke-width:6.6563"
             id="path98" />
        </g>
        <g
           id="g100"
           transform="matrix(0.24794412,0,0,-0.24794412,128.64892,149.46068)"
           style="stroke-width:6.6563">
          <path
             d="m 0,0 h -19.954 v -29.819 h 6.568 v 23.25 h 10.527 c 1.357,0 2.458,-1.1 2.458,-2.458 V -29.819 H 6.168 V -6.167 C 6.168,-2.761 3.406,0 0,0"
             style="fill:#ffffff;fill-opacity:1;fill-rule:nonzero;stroke:none;stroke-width:6.6563"
             id="path102" />
        </g>
        <g
           id="g104"
           transform="matrix(0.24794412,0,0,-0.24794412,133.93251,151.01445)"
           style="stroke-width:6.6563">
          <path
             d="M 0,0 C 3.012,1.601 5.922,1.053 8.377,-0.981 L -4.231,-7.684 C -4.493,-4.483 -3.114,-1.656 0,0 m 8.748,-16.204 c -3.839,-2.04 -8.279,-0.941 -11.059,3.034 L 18.233,-2.249 C 17.884,-1.414 17.455,-0.622 16.969,0.13 16.86,0.303 16.744,0.465 16.631,0.632 13.864,4.562 9.302,7.137 4.131,7.137 2.098,7.137 0.161,6.732 -1.613,6.011 -1.746,5.955 -1.879,5.904 -2.01,5.844 -2.553,5.606 -3.073,5.332 -3.581,5.034 -4.045,4.761 -4.482,4.465 -4.907,4.159 c -3.782,-2.782 -6.248,-7.251 -6.248,-12.307 0,-8.443 6.843,-15.287 15.286,-15.287 7.666,0 13.995,5.65 15.098,13.009 -1.647,0.005 -6.036,0.017 -6.067,0.019 -0.552,-2.49 -2.131,-4.583 -4.414,-5.797"
             style="fill:#ffffff;fill-opacity:1;fill-rule:nonzero;stroke:none;stroke-width:6.6563"
             id="path106" />
        </g>
        <path
           d="m 144.49785,156.85412 h -1.65378 v -1.65378 h 1.65378 z"
           style="fill:#41bea5;fill-opacity:1;fill-rule:nonzero;stroke:none;stroke-width:1.65039"
           id="path108" />
      </g>
      <path
         id="text27"
         style="font-style:normal;font-variant:normal;font-weight:normal;font-stretch:normal;font-size:41.8307px;line-height:1.25;font-family:Roboto;-inkscape-font-specification:Roboto;letter-spacing:-1.98438px;word-spacing:0px;fill:#ffffff;fill-opacity:1;stroke:none;stroke-width:3.95251"
         d="M 76.75 0 C 75.582501 0 74.670873 0.3431217 74.013672 1.03125 C 73.364202 1.7193783 73.039062 2.7067591 73.039062 3.9902344 L 73.039062 5.5097656 L 70.962891 5.5097656 L 70.962891 6.6445312 L 73.039062 6.6445312 L 73.039062 18.056641 L 74.429688 18.056641 L 74.429688 6.6445312 L 77.421875 6.6445312 L 77.421875 5.5097656 L 74.429688 5.5097656 L 74.429688 3.9550781 C 74.429688 3.0813871 74.643112 2.4091385 75.068359 1.9375 C 75.493607 1.4581297 76.08807 1.2167969 76.853516 1.2167969 C 77.309691 1.2167969 77.732552 1.2646405 78.119141 1.3574219 L 78.222656 0.19726562 C 77.766481 0.065825388 77.275761 0 76.75 0 z M 122.95898 0.24414062 L 122.95898 7.2832031 C 122.06983 5.9456054 120.7792 5.2773438 119.08594 5.2773438 C 117.5937 5.2773437 116.4108 5.8578113 115.53711 7.0175781 C 114.67115 8.1696131 114.23828 9.7195605 114.23828 11.667969 L 114.23828 11.830078 C 114.23828 13.809413 114.67912 15.383283 115.56055 16.550781 C 116.4497 17.710548 117.61666 18.289062 119.0625 18.289062 C 120.78669 18.289062 122.09327 17.65473 122.98242 16.386719 L 123.04102 18.056641 L 124.33984 18.056641 L 124.33984 0.24414062 L 122.95898 0.24414062 z M 145.83594 0.93945312 C 145.54213 0.93945312 145.31072 1.0312342 145.14062 1.2167969 C 144.97053 1.3946278 144.88477 1.6160258 144.88477 1.8789062 C 144.88477 2.1417867 144.97053 2.3612316 145.14062 2.5390625 C 145.31072 2.7168934 145.54213 2.8066406 145.83594 2.8066406 C 146.12975 2.8066406 146.3631 2.7168934 146.5332 2.5390625 C 146.71103 2.3612316 146.79883 2.1417867 146.79883 1.8789062 C 146.79883 1.6160258 146.71103 1.3946278 146.5332 1.2167969 C 146.3631 1.0312342 146.12975 0.93945312 145.83594 0.93945312 z M 139.22852 2.296875 L 139.22852 5.5097656 L 136.91992 5.5097656 L 136.91992 6.6445312 L 139.22852 6.6445312 L 139.22852 15.019531 C 139.22852 16.094248 139.44397 16.910109 139.87695 17.466797 C 140.30993 18.015753 141.00212 18.289062 141.95312 18.289062 C 142.5794 18.289062 143.07411 18.223237 143.4375 18.091797 L 143.37891 16.955078 C 142.86088 17.032396 142.48586 17.072266 142.25391 17.072266 C 141.66629 17.072266 141.24538 16.900745 140.99023 16.560547 C 140.74282 16.220349 140.61914 15.703673 140.61914 15.007812 L 140.61914 6.6445312 L 143.2168 6.6445312 L 143.2168 5.5097656 L 140.61914 5.5097656 L 140.61914 2.296875 L 139.22852 2.296875 z M 83.601562 5.2773438 C 82.519113 5.2773438 81.549634 5.5466661 80.691406 6.0878906 C 79.840911 6.6213834 79.180623 7.3714183 78.708984 8.3378906 C 78.245078 9.304363 78.011719 10.391499 78.011719 11.597656 L 78.011719 11.876953 C 78.011719 13.809898 78.530348 15.363832 79.566406 16.539062 C 80.610196 17.706561 81.962668 18.289062 83.625 18.289062 C 84.715181 18.289062 85.686614 18.025761 86.537109 17.5 C 87.387605 16.974239 88.043906 16.228191 88.507812 15.261719 C 88.979451 14.287515 89.214844 13.194358 89.214844 11.980469 L 89.214844 11.691406 C 89.214844 9.7584616 88.698168 8.2065611 87.662109 7.0390625 C 86.626051 5.8638321 85.271627 5.2773438 83.601562 5.2773438 z M 108.33594 5.2773438 C 107.48544 5.2773438 106.70945 5.4827939 106.00586 5.8925781 C 105.30227 6.2946306 104.71383 6.881119 104.24219 7.6542969 L 104.19727 5.5097656 L 102.875 5.5097656 L 102.875 18.056641 L 104.25391 18.056641 L 104.25391 9.4628906 C 104.57091 8.5505407 105.05764 7.8284146 105.71484 7.2949219 C 106.37978 6.7536974 107.14177 6.4824219 108 6.4824219 C 109.02833 6.4824219 109.77437 6.7576843 110.23828 7.3066406 C 110.70992 7.8555969 110.9493 8.6913921 110.95703 9.8125 L 110.95703 18.056641 L 112.33789 18.056641 L 112.33789 9.8222656 C 112.33016 8.306837 111.99704 7.1717768 111.33984 6.4140625 C 110.68264 5.6563482 109.68127 5.2773438 108.33594 5.2773438 z M 131.33203 5.2773438 C 129.97897 5.2773437 128.83797 5.6443873 127.91016 6.3789062 C 126.98234 7.1056934 126.51758 7.9674443 126.51758 8.9648438 L 127.91016 8.9765625 C 127.91016 8.2807024 128.22732 7.6862401 128.86133 7.1914062 C 129.49533 6.6965724 130.29525 6.4492188 131.26172 6.4492188 C 132.32097 6.4492187 133.12487 6.7065802 133.67383 7.2246094 C 134.23052 7.7349068 134.50977 8.4390512 134.50977 9.3359375 L 134.50977 10.761719 L 131.99219 10.761719 C 130.17522 10.761719 128.75692 11.118754 127.73633 11.830078 C 126.72347 12.541402 126.2168 13.506895 126.2168 14.728516 C 126.2168 15.756842 126.58783 16.608585 127.33008 17.28125 C 128.08006 17.953915 129.05751 18.289062 130.26367 18.289062 C 131.10644 18.289062 131.90431 18.119495 132.6543 17.779297 C 133.41201 17.431367 134.03438 16.940646 134.52148 16.306641 C 134.56014 17.079818 134.64794 17.66232 134.78711 18.056641 L 136.27148 18.056641 L 136.27148 17.917969 C 136.01634 17.31489 135.88867 16.407249 135.88867 15.193359 L 135.88867 9.2558594 C 135.86548 8.0033112 135.44856 7.0278913 134.63672 6.3320312 C 133.83261 5.6284394 132.73148 5.2773438 131.33203 5.2773438 z M 153.98828 5.2773438 C 152.90583 5.2773438 151.9344 5.5466661 151.07617 6.0878906 C 150.22568 6.6213834 149.56539 7.3714183 149.09375 8.3378906 C 148.62984 9.304363 148.39844 10.391499 148.39844 11.597656 L 148.39844 11.876953 C 148.39844 13.809898 148.91511 15.363832 149.95117 16.539062 C 150.99496 17.706561 152.34939 18.289062 154.01172 18.289062 C 155.1019 18.289062 156.07138 18.025761 156.92188 17.5 C 157.77237 16.974239 158.43062 16.228191 158.89453 15.261719 C 159.36617 14.287515 159.60156 13.194358 159.60156 11.980469 L 159.60156 11.691406 C 159.60156 9.7584616 159.08293 8.2065611 158.04688 7.0390625 C 157.01082 5.8638321 155.65835 5.2773438 153.98828 5.2773438 z M 166.80078 5.2773438 C 165.95029 5.2773438 165.17429 5.4827939 164.4707 5.8925781 C 163.76711 6.2946306 163.17867 6.881119 162.70703 7.6542969 L 162.66016 5.5097656 L 161.33984 5.5097656 L 161.33984 18.056641 L 162.71875 18.056641 L 162.71875 9.4628906 C 163.03575 8.5505407 163.52249 7.8284146 164.17969 7.2949219 C 164.84462 6.7536974 165.60662 6.4824219 166.46484 6.4824219 C 167.49317 6.4824219 168.23922 6.7576843 168.70312 7.3066406 C 169.17476 7.8555969 169.41414 8.6913921 169.42188 9.8125 L 169.42188 18.056641 L 170.80273 18.056641 L 170.80273 9.8222656 C 170.795 8.306837 170.46189 7.1717768 169.80469 6.4140625 C 169.14749 5.6563482 168.14611 5.2773438 166.80078 5.2773438 z M 90.90625 5.5097656 L 90.90625 13.673828 C 90.921714 15.196989 91.278749 16.347997 91.974609 17.128906 C 92.670469 17.902084 93.68584 18.289062 95.023438 18.289062 C 96.855869 18.289062 98.190359 17.682639 99.025391 16.46875 L 99.048828 18.056641 L 100.39453 18.056641 L 100.39453 5.5097656 L 99.001953 5.5097656 L 99.001953 14.589844 C 98.46846 16.252176 97.197762 17.083984 95.1875 17.083984 C 93.254555 17.083984 92.287109 15.88912 92.287109 13.5 L 92.287109 5.5097656 L 90.90625 5.5097656 z M 145.12891 5.5097656 L 145.12891 18.056641 L 146.52148 18.056641 L 146.52148 5.5097656 L 145.12891 5.5097656 z M 83.601562 6.4589844 C 84.428863 6.4589844 85.164903 6.6803824 85.806641 7.1210938 C 86.448378 7.5540734 86.947073 8.1684706 87.302734 8.9648438 C 87.658396 9.7612169 87.835938 10.638916 87.835938 11.597656 L 87.835938 11.865234 C 87.835938 13.442517 87.444972 14.713215 86.664062 15.679688 C 85.890885 16.638428 84.877548 17.119141 83.625 17.119141 C 82.36472 17.119141 81.345363 16.638428 80.564453 15.679688 C 79.791275 14.713215 79.404297 13.480434 79.404297 11.980469 L 79.404297 11.724609 C 79.404297 10.155058 79.795262 8.8883473 80.576172 7.921875 C 81.357082 6.9476709 82.364478 6.4589844 83.601562 6.4589844 z M 153.98828 6.4589844 C 154.81558 6.4589844 155.54967 6.6803824 156.19141 7.1210938 C 156.83314 7.5540734 157.33184 8.1684706 157.6875 8.9648438 C 158.04316 9.7612169 158.2207 10.638916 158.2207 11.597656 L 158.2207 11.865234 C 158.2207 13.442517 157.82974 14.713215 157.04883 15.679688 C 156.27565 16.638428 155.26427 17.119141 154.01172 17.119141 C 152.75144 17.119141 151.73013 16.638428 150.94922 15.679688 C 150.17604 14.713215 149.78906 13.480434 149.78906 11.980469 L 149.78906 11.724609 C 149.78906 10.155058 150.18003 8.8883473 150.96094 7.921875 C 151.74185 6.9476709 152.7512 6.4589844 153.98828 6.4589844 z M 119.3418 6.4824219 C 121.03506 6.4824219 122.23993 7.2982822 122.95898 8.9296875 L 122.95898 14.822266 C 122.23993 16.329962 121.02708 17.083984 119.31836 17.083984 C 118.15086 17.083984 117.24525 16.623207 116.60352 15.703125 C 115.96178 14.775312 115.64063 13.510634 115.64062 11.910156 C 115.64063 10.124115 115.96576 8.7756311 116.61523 7.8632812 C 117.2647 6.9431996 118.1743 6.4824219 119.3418 6.4824219 z M 132.02734 11.830078 L 134.50977 11.830078 L 134.50977 14.589844 C 134.1773 15.339826 133.64272 15.938276 132.9082 16.386719 C 132.18142 16.835162 131.35359 17.060547 130.42578 17.060547 C 129.59075 17.060547 128.91053 16.829141 128.38477 16.365234 C 127.86674 15.901328 127.60938 15.316873 127.60938 14.613281 C 127.60937 13.755054 127.99839 13.082805 128.7793 12.595703 C 129.56021 12.100869 130.64336 11.845542 132.02734 11.830078 z "
         transform="matrix(1.7611425,0,0,1.7611425,64.398896,133.27737)" />
    </g>
  </g>
</svg>
